<?xml version="1.0" encoding="utf-8"?>
<!-- Generator: Adobe Illustrator 27.5.0, SVG Export Plug-In . SVG Version: 6.00 Build 0)  -->
<svg version="1.1" id="Layer_1" xmlns="http://www.w3.org/2000/svg" xmlns:xlink="http://www.w3.org/1999/xlink" x="0px" y="0px"
	 viewBox="0 0 4000 4000" style="enable-background:new 0 0 4000 4000;" xml:space="preserve">
<g>
	<defs>
		<rect id="SVGID_1_" width="4000" height="4000"/>
	</defs>
	<clipPath id="SVGID_00000101104076563383262350000013427393176265288379_">
		<use xlink:href="#SVGID_1_"  style="overflow:visible;"/>
	</clipPath>
	
		<rect x="32.57" y="32.57" style="clip-path:url(#SVGID_00000101104076563383262350000013427393176265288379_);fill-rule:evenodd;clip-rule:evenodd;fill:#FFFFFF;" width="3934.859" height="3934.859"/>
	
		<path style="clip-path:url(#SVGID_00000101104076563383262350000013427393176265288379_);fill-rule:evenodd;clip-rule:evenodd;fill:#253536;" d="
		M2788.684,2677.378h-53.659v2.049l91.93,138.57v98.929h45.11v-98.929l95.343-138.57v-2.049h-54.344l-63.554,98.926
		L2788.684,2677.378z M2633.144,2825.918l-117.208-148.54h-36.57v239.548h45.11V2755.4l125.757,161.526h28.02v-239.548h-45.11
		V2825.918z M2338.875,2829.788h-88.852l44.426-102.066L2338.875,2829.788z M2377.145,2916.926h49.207l-107.3-239.548h-49.207
		l-107.303,239.548h48.868l20.497-45.104h125.083L2377.145,2916.926z M2039.814,2677.378c-37.586-0.342-75.179,0-112.765,0v239.548
		h45.1v-70.391h67.665C2157.031,2846.535,2156.689,2677.378,2039.814,2677.378z M1972.149,2720.439h67.665
		c57.418,0,57.75,84.745,0,84.745h-67.665V2720.439z M1810.47,2916.926h45.11v-238.864h-51.601l-74.84,102.681l-74.837-102.681
		h-51.943v238.864h45.1v-173.655l76.208,104.059h8.889l77.915-103.717V2916.926z M1417.089,2713.938
		c56.392,0,78.941,45.11,78.257,85.438c-0.684,39.293-21.864,81.67-78.257,81.67c-56.382,0-77.569-42.025-78.595-81.328
		C1337.468,2759.39,1360.707,2713.938,1417.089,2713.938z M1417.089,2672.936c-82.696,0-123.021,63.216-123.021,126.099
		c0,62.874,38.961,123.363,123.021,123.363c84.074,0,121.999-61.858,122.683-123.705
		C1540.455,2736.151,1499.453,2672.936,1417.089,2672.936z M1219.524,2855.759c-15.715,15.722-39.296,24.262-60.141,24.262
		c-59.115,0-82.012-41.351-82.354-80.986c-0.342-39.987,24.604-83.038,82.354-83.038c20.845,0,42.035,7.175,57.75,22.545
		l30.069-29.043c-24.597-24.265-55.36-36.563-87.819-36.563c-86.455,0-127.122,63.558-126.783,126.099
		c0.342,62.19,37.928,123.363,126.783,123.363c34.511,0,66.297-11.279,90.904-35.544L1219.524,2855.759z"/>
	
		<path style="clip-path:url(#SVGID_00000101104076563383262350000013427393176265288379_);fill-rule:evenodd;clip-rule:evenodd;fill:#253536;" d="
		M2777.734,3079.602v-83.426h60.242v9.797h-49.171v25.63h46.025v9.784h-46.025v28.427h51.149v9.787H2777.734z M2650.038,3079.602
		v-83.426h11.338l43.771,65.486v-65.486h10.608v83.426h-11.348l-43.771-65.476v65.476H2650.038z M2576.446,3079.602v-83.426h11.061
		v83.426H2576.446z M2466.107,3079.602v-83.426h11.061v73.638h41.022v9.787H2466.107z M2371.771,3046.862v-9.784h35.306v30.919
		c-5.42,4.302-11.015,7.569-16.787,9.739c-5.762,2.179-11.686,3.27-17.744,3.27c-8.198,0-15.631-1.746-22.334-5.263
		c-6.683-3.498-11.745-8.585-15.142-15.207c-3.423-6.647-5.133-14.061-5.133-22.229c0-8.126,1.69-15.696,5.088-22.75
		c3.397-7.025,8.273-12.253,14.644-15.65c6.371-3.417,13.709-5.123,22.017-5.123c6.022,0,11.488,0.97,16.354,2.935
		c4.873,1.958,8.706,4.684,11.455,8.152c2.781,3.501,4.875,8.061,6.315,13.676l-9.96,2.713c-1.267-4.228-2.817-7.569-4.664-10.019
		c-1.863-2.427-4.504-4.365-7.957-5.823c-3.436-1.459-7.266-2.198-11.478-2.198c-5.032,0-9.38,0.775-13.074,2.309
		c-3.664,1.541-6.618,3.563-8.888,6.084c-2.254,2.501-4,5.263-5.244,8.253c-2.117,5.179-3.186,10.774-3.186,16.813
		c0,7.458,1.283,13.692,3.821,18.725c2.566,5.012,6.296,8.732,11.172,11.162c4.896,2.427,10.074,3.654,15.575,3.654
		c4.775,0,9.436-0.931,13.979-2.778c4.541-1.866,7.977-3.824,10.331-5.947v-15.63H2371.771z M2226.673,3045.348h28.427
		l-8.699-23.125c-2.622-7.029-4.596-12.836-5.983-17.422c-1.143,5.436-2.677,10.784-4.595,16.064L2226.673,3045.348z
		 M2202.669,3079.602l32.007-83.426h12.132l33.968,83.426h-12.565l-9.647-25.278h-35.13l-9.048,25.278H2202.669z M2127.295,3079.602
		v-73.628h-27.506v-9.797h66.069v9.797h-27.506v73.628H2127.295z M1955.125,3079.602v-83.426h60.232v9.797h-49.162v25.63h46.025
		v9.784h-46.025v28.427h51.148v9.787H1955.125z M1814.395,3079.602v-83.426h16.542l19.731,59.06
		c1.827,5.495,3.15,9.611,3.987,12.344c0.951-3.029,2.44-7.494,4.462-13.376l20.08-58.027h14.78v83.426h-10.608v-69.788
		l-24.346,69.788h-9.944l-24.076-71.072v71.072H1814.395z M1688.83,3039.192c0,10.045,2.707,17.946,8.107,23.708
		c5.394,5.771,12.168,8.67,20.33,8.67c8.309,0,15.122-2.918,20.506-8.745c5.355-5.824,8.042-14.096,8.042-24.815
		c0-6.778-1.146-12.696-3.443-17.744c-2.29-5.052-5.651-8.977-10.054-11.755c-4.433-2.778-9.38-4.172-14.875-4.172
		c-7.81,0-14.533,2.677-20.164,8.042C1691.647,3017.735,1688.83,3026.672,1688.83,3039.192z M1677.42,3038.996
		c0-13.819,3.729-24.659,11.162-32.489c7.442-7.82,17.034-11.725,28.795-11.725c7.709,0,14.644,1.847,20.839,5.511
		c6.175,3.677,10.895,8.801,14.136,15.383c3.25,6.563,4.872,14.025,4.872,22.353c0,8.446-1.707,16.018-5.123,22.682
		c-3.417,6.677-8.253,11.725-14.504,15.142c-6.279,3.443-13.028,5.153-20.275,5.153c-7.866,0-14.872-1.902-21.07-5.697
		c-6.175-3.785-10.875-8.947-14.061-15.51C1679.006,3053.252,1677.42,3046.318,1677.42,3038.996z M1556.262,3052.81l10.377-0.932
		c0.479,4.189,1.625,7.625,3.433,10.328c1.801,2.681,4.599,4.86,8.393,6.521c3.785,1.651,8.051,2.491,12.797,2.491
		c4.208,0,7.921-0.629,11.142-1.883c3.224-1.267,5.615-2.993,7.185-5.188c1.576-2.198,2.371-4.579,2.371-7.146
		c0-2.605-0.756-4.876-2.27-6.833c-1.524-1.948-4.026-3.573-7.517-4.922c-2.234-0.85-7.192-2.205-14.862-4.052
		c-7.664-1.847-13.028-3.573-16.093-5.208c-3.98-2.094-6.934-4.7-8.872-7.784c-1.967-3.081-2.938-6.563-2.938-10.384
		c0-4.24,1.212-8.181,3.593-11.829c2.391-3.674,5.863-6.452,10.471-8.354c4.579-1.902,9.683-2.853,15.298-2.853
		c6.175,0,11.631,0.987,16.35,2.993c4.716,1.974,8.354,4.912,10.895,8.797c2.547,3.86,3.905,8.253,4.097,13.145l-10.598,0.814
		c-0.563-5.263-2.492-9.244-5.771-11.921c-3.276-2.703-8.133-4.042-14.539-4.042c-6.687,0-11.559,1.228-14.608,3.674
		c-3.045,2.446-4.579,5.39-4.579,8.853c0,2.993,1.081,5.459,3.241,7.397c2.133,1.922,7.674,3.925,16.637,5.944
		c8.976,2.042,15.132,3.804,18.467,5.319c4.837,2.234,8.429,5.052,10.745,8.485c2.309,3.417,3.452,7.358,3.452,11.826
		c0,4.452-1.264,8.605-3.804,12.53c-2.547,3.925-6.175,6.97-10.931,9.139c-4.762,2.179-10.1,3.27-16.064,3.27
		c-7.533,0-13.839-1.107-18.927-3.306c-5.114-2.198-9.094-5.495-11.983-9.924C1557.933,3063.372,1556.418,3058.376,1556.262,3052.81
		z M1439.191,3079.602v-83.426h60.236v9.797h-49.165v25.63h46.015v9.784h-46.015v28.427h51.148v9.787H1439.191z M1300.168,3079.602
		l-21.962-83.426h11.458l12.507,54.702c1.358,5.736,2.567,11.422,3.592,17.054c2.199-8.892,3.472-14.015,3.84-15.383l15.771-56.373
		h13.305l11.963,42.24c2.928,10.488,5.107,20.33,6.501,29.515c1.107-5.263,2.531-11.302,4.257-18.115l13.025-53.64h11.09
		l-22.832,83.426h-10.739l-17.497-63.558c-1.475-5.315-2.371-8.576-2.703-9.784c-0.951,3.801-1.801,7.071-2.541,9.768
		l-17.493,63.574H1300.168z M1184.042,3045.348h28.437l-8.696-23.125c-2.622-7.029-4.609-12.836-5.983-17.422
		c-1.156,5.436-2.687,10.784-4.609,16.064L1184.042,3045.348z M1160.047,3079.602l32-83.426h12.139l33.958,83.426h-12.556
		l-9.657-25.278h-35.13l-9.048,25.278H1160.047z"/>
	
		<path style="clip-path:url(#SVGID_00000101104076563383262350000013427393176265288379_);fill-rule:evenodd;clip-rule:evenodd;fill:#14C7DA;" d="
		M2176.456,1828.104l-0.01,325.058c0,198.806-162.659,361.465-361.482,361.465c-198.803,0-361.462-162.659-361.472-361.472v-325.052
		l0.01-722.954h722.944L2176.456,1828.104z"/>
	
		<path style="opacity:0.8;clip-path:url(#SVGID_00000101104076563383262350000013427393176265288379_);fill-rule:evenodd;clip-rule:evenodd;fill:#FE5F9B;" d="
		M2176.446,1105.15h8.595c198.816,0,361.472,162.659,361.472,361.482c0,198.813-162.656,361.472-361.472,361.472h-8.585h-722.964
		l0.01-722.954H2176.446z"/>
</g>
</svg>
